HIERARCHY
ROOT Hips
{
     OFFSET 1.88212 96.90440 -13.34250
     CHANNELS 6 Xposition Yposition Zposition Zrotation Xrotation Yrotation
     JOINT Spine
     {
          OFFSET 0.00000 11.89050 0.00000
          CHANNELS 3 Zrotation Xrotation Yrotation
          JOINT Spine1
          {
               OFFSET -0.00000 25.65740 0.12766
               CHANNELS 3 Zrotation Xrotation Yrotation
               JOINT HEad
               {
                    OFFSET 0.00000 8.73416 0.01134
                    CHANNELS 3 Zrotation Xrotation Yrotation
                    End Site
                    {
                         OFFSET -0.29000 12.77420 2.51395
                    }
               }
               JOINT LeftShoulder1
               {
                    OFFSET 8.99000 -0.36225 -0.22000
                    CHANNELS 3 Zrotation Xrotation Yrotation
                    JOINT LeftArm
                    {
                         OFFSET 10.28270 -0.00338 0.32212
                         CHANNELS 3 Zrotation Xrotation Yrotation
                         JOINT LeftForeArm
                         {
                              OFFSET 32.76690 0.09914 -1.42434
                              CHANNELS 3 Zrotation Xrotation Yrotation
                              JOINT LeftHand
                              {
                                   OFFSET 27.56430 0.08536 1.02216
                                   CHANNELS 3 Zrotation Xrotation Yrotation
                                   End Site
                                   {
                                        OFFSET 16.74430 -0.60000 1.50291
                                   }
                              }
                         }
                    }
               }
               JOINT RightShoulder
               {
                    OFFSET -8.99000 -0.36225 -0.22000
                    CHANNELS 3 Zrotation Xrotation Yrotation
                    JOINT RightArm
                    {
                         OFFSET -10.28270 -0.00338 0.32212
                         CHANNELS 3 Zrotation Xrotation Yrotation
                         JOINT RightForeArm
                         {
                              OFFSET -32.89710 0.09914 -1.42434
                              CHANNELS 3 Zrotation Xrotation Yrotation
                              JOINT RightHand
                              {
                                   OFFSET -27.49210 0.08536 1.02216
                                   CHANNELS 3 Zrotation Xrotation Yrotation
                                   End Site
                                   {
                                        OFFSET -16.63120 -0.60000 1.50291
                                   }
                              }
                         }
                    }
               }
          }
     }
     JOINT LeftUpLeg
     {
          OFFSET 8.94580 -8.66707 0.10165
          CHANNELS 3 Zrotation Xrotation Yrotation
          JOINT LeftLeg
          {
               OFFSET 0.00000 -44.42270 1.37270
               CHANNELS 3 Zrotation Xrotation Yrotation
               JOINT LeftFoot
               {
                    OFFSET -0.25355 -42.09240 -1.46059
                    CHANNELS 3 Zrotation Xrotation Yrotation
                    JOINT LeftToes
                    {
                         OFFSET -0.04000 -4.41509 8.49910
                         CHANNELS 3 Zrotation Xrotation Yrotation
                         End Site
                         {
                              OFFSET 0.08000 -0.04745 9.77979
                         }
                    }
               }
          }
     }
     JOINT RightUpLeg
     {
          OFFSET -8.94580 -8.66707 0.10165
          CHANNELS 3 Zrotation Xrotation Yrotation
          JOINT RightLeg
          {
               OFFSET 0.00000 -44.42270 1.37270
               CHANNELS 3 Zrotation Xrotation Yrotation
               JOINT RightFoot
               {
                    OFFSET 0.25355 -42.09240 -1.46059
                    CHANNELS 3 Zrotation Xrotation Yrotation
                    JOINT RightToes
                    {
                         OFFSET 0.04000 -4.41509 8.49910
                         CHANNELS 3 Zrotation Xrotation Yrotation
                         End Site
                         {
                              OFFSET -0.08000 -0.13745 9.77979
                         }
                    }
               }
          }
     }
}
MOTION
Frames: 15
Frame Time: 0.01667
9.91532 91.92382 20.93144 -2.25941 3.62109 135.17503 3.68459 7.02926 3.09617 0.00525 0.01697 0.00401 -10.70340 9.18705 50.95964 0.34893 12.05186 3.81921 -123.25352 -58.12106 -109.85098 -26.64391 39.10873 -84.88870 5.17860 8.42424 0.82113 13.23618 13.54068 5.05508 54.50982 -16.80843 82.24241 12.81656 30.11728 89.42683 -4.84807 9.33526 -0.39164 11.58901 -15.61391 0.11255 -4.96452 21.36898 2.81961 -6.26449 -0.00402 -0.00107 2.81412 -18.32842 -0.08922 -10.15979 -10.15960 -8.42551 0.88887 35.31827 8.72223 -13.90010 -0.01007 -0.01006 18.26069 -21.52014 2.69394 
9.97953 91.52534 20.66629 -2.20126 3.60585 135.15947 3.80052 7.61043 3.27599 0.00449 0.01435 0.00256 -10.75887 8.70290 50.66133 0.05798 11.79078 3.50423 -123.18938 -58.51322 -109.07593 -26.43516 39.49243 -85.32450 5.41014 8.48259 0.42137 13.45811 13.26115 4.80615 54.22607 -17.44529 81.21352 12.78470 30.84299 89.92393 -5.15155 9.32920 -0.05687 11.64010 -15.60825 -0.23031 -5.24059 23.12574 3.60220 -6.54724 -0.01525 -0.00968 3.00898 -19.59713 -0.39586 -10.22320 -10.24606 -8.41451 0.82512 36.16967 8.56556 -16.04134 -0.00684 -0.01704 19.27448 -22.57147 2.74565 
10.07687 90.90959 20.22928 -2.09697 3.63696 135.11345 3.88513 8.34984 3.48220 0.00392 0.01207 0.00124 -10.75370 8.07941 50.36481 -0.18581 11.46096 3.21678 -123.04015 -58.99195 -108.14341 -26.32838 39.78407 -85.79424 5.41489 8.48758 0.32557 13.68342 12.90478 4.50917 53.89845 -18.13361 80.12746 12.81119 31.55505 90.48711 -5.19162 9.31521 -0.05358 11.61850 -16.19791 -0.49241 -5.51163 26.70022 4.77051 -6.96376 -0.01056 -0.01533 3.15923 -21.88731 -1.13578 -10.30513 -10.44918 -8.33736 0.55702 37.54543 8.54850 -18.12338 -0.00364 -0.02354 20.34996 -23.97389 2.75483 
10.20424 90.11465 19.63292 -1.95058 3.72737 135.05328 3.92625 9.21922 3.69070 0.00358 0.01016 0.00007 -10.69537 7.35253 50.08372 -0.41134 11.09405 2.94917 -122.80985 -59.54392 -107.10994 -26.30862 40.00606 -86.28851 5.52817 8.56817 0.03252 13.93600 12.50805 4.18072 53.48995 -18.83131 79.01993 12.86050 32.22140 91.10052 -5.42095 9.32608 0.19034 11.51844 -17.25780 -0.69147 -5.79426 30.04593 5.86979 -7.38531 0.00247 -0.00813 3.47433 -23.35534 -1.70372 -10.31813 -10.91254 -8.18309 -1.33135 40.95975 9.54625 -19.32759 -0.00952 -0.03674 21.58522 -27.19622 2.78635 
10.31254 89.15555 18.92269 -1.77961 3.86929 135.01410 3.92452 10.17432 3.86190 0.00345 0.00867 -0.00088 -10.59181 6.54929 49.82759 -0.62565 10.71252 2.69358 -122.50520 -60.14438 -105.99284 -26.34352 40.18863 -86.79710 5.50706 8.60577 -0.05686 14.21927 12.09551 3.84440 52.99189 -19.50537 77.91470 12.89901 32.83047 91.73853 -5.49042 9.33496 0.22241 11.09844 -19.58968 -0.53900 -5.58985 34.70662 6.49165 -7.90376 0.00036 -0.00931 3.94128 -24.69035 -2.12295 -10.29314 -11.64525 -7.98917 -2.98304 44.24463 10.43702 -20.83378 0.00759 -0.03346 22.95230 -29.90120 2.75926 
10.36565 88.04921 18.15029 -1.59923 4.04870 135.00542 3.88529 11.18080 3.98338 0.00338 0.00758 -0.00155 -10.44999 5.68729 49.60172 -0.82330 10.32933 2.44545 -122.13504 -60.76141 -104.79794 -26.40178 40.35071 -87.31356 5.56612 8.67480 -0.26202 14.51651 11.68072 3.52468 52.42263 -20.13256 76.84509 12.91010 33.36811 92.37344 -5.67819 9.36038 0.40871 10.67513 -21.88506 -0.39368 -5.32423 39.58323 6.96461 -8.52767 0.00003 -0.01252 4.53328 -26.21537 -2.43323 -10.27888 -12.59977 -7.77618 -4.62199 47.58280 11.38997 -22.50747 0.00941 -0.03421 24.54339 -32.30729 2.72273 
10.35062 86.80045 17.34953 -1.41069 4.24581 135.01752 3.82356 12.21772 4.06266 0.00324 0.00686 -0.00195 -10.27503 4.77836 49.40894 -0.99379 9.95174 2.20239 -121.70847 -61.35925 -103.53162 -26.45821 40.50341 -87.82158 5.55769 8.70654 -0.35156 14.80259 11.27146 3.24423 51.81759 -20.69208 75.85783 12.88837 33.82404 92.96223 -5.76718 9.38348 0.48796 10.25293 -24.11380 -0.24935 -4.85813 43.81825 7.15527 -7.24815 -0.03105 0.01279 3.29685 -27.16875 -2.58276 -10.30332 -13.70391 -7.54772 -6.41527 51.04623 12.56746 -24.27723 0.01097 -0.03584 26.38272 -34.61620 2.71128 
10.26871 85.42354 16.54139 -1.21812 4.44947 135.03963 3.74270 13.27081 4.11021 0.00293 0.00642 -0.00213 -10.07038 3.83118 49.25136 -1.13215 9.58547 1.96752 -121.23042 -61.90499 -102.20354 -26.49990 40.64938 -88.30843 5.61042 8.74354 -0.51613 15.04868 10.87444 3.01644 51.22255 -21.16112 75.01299 12.83744 34.18795 93.46350 -5.91289 9.41646 0.68146 9.83879 -26.29259 -0.09732 -4.34052 48.39997 7.22255 -6.03184 -0.01274 0.02277 2.16448 -28.55322 -2.66783 -10.38527 -14.89104 -7.30478 -8.48450 54.63638 14.10744 -26.12296 0.01352 -0.03797 28.47950 -36.92764 2.74500 
10.12850 83.93613 15.72210 -1.01958 4.65249 135.05812 3.64655 14.33208 4.13994 0.00249 0.00617 -0.00213 -9.83946 2.85363 49.13144 -1.22576 9.23391 1.74834 -120.70698 -62.37109 -100.81890 -26.52448 40.78691 -88.76360 5.62335 8.75685 -0.62796 15.23690 10.49444 2.84917 50.65235 -21.49627 74.36803 12.75573 34.42406 93.83815 -6.00458 9.43404 0.84136 9.46991 -28.42805 0.08421 -3.43020 52.27047 6.85801 -5.89640 -0.02662 -0.00061 2.11743 -29.24431 -2.57065 -10.53345 -16.10203 -7.04581 -10.94156 58.31041 16.14567 -28.04833 0.01690 -0.04033 30.81147 -39.28841 2.82948 
9.94033 82.35663 14.87515 -0.81288 4.85409 135.06194 3.53614 15.39561 4.16383 0.00195 0.00598 -0.00203 -9.58655 1.85378 49.05267 -1.26545 8.90105 1.55666 -120.14040 -62.73889 -99.38132 -26.53953 40.91113 -89.18580 5.66837 8.77716 -0.79266 15.35114 10.13693 2.74099 50.12301 -21.65616 73.97830 12.64596 34.50281 94.06106 -6.12337 9.45425 1.08106 9.17240 -30.51175 0.31137 -2.10288 55.69458 6.02516 -5.43337 -0.02490 0.00160 1.65320 -29.68167 -2.44278 -10.75669 -17.28615 -6.77212 -13.92703 61.99643 18.84361 -30.06305 0.02083 -0.04255 33.34892 -41.70558 2.96125 
9.70508 80.73497 14.00250 -0.61128 5.06292 135.05345 3.39843 16.45185 4.18251 0.00139 0.00583 -0.00183 -9.31631 0.83683 49.01868 -1.25083 8.58743 1.40097 -119.52701 -63.00111 -97.89299 -26.55249 41.01968 -89.58189 5.68069 8.79215 -0.92556 15.38118 9.80413 2.69096 49.64255 -21.60763 73.88254 12.50759 34.40514 94.12047 -6.20068 9.46289 1.29374 8.88940 -32.56910 0.55504 -0.74100 59.59383 5.03899 -5.15690 -0.02865 0.00197 1.42548 -30.55042 -2.29197 -11.05604 -18.41232 -6.49013 -18.17559 65.49683 22.87564 -30.01753 -0.00223 -0.00360 34.08376 -44.14877 3.05962 
9.42283 79.11688 13.10834 -0.42826 5.28684 135.03477 3.22068 17.49307 4.19829 0.00109 0.00569 -0.00151 -9.03304 -0.19522 49.03264 -1.18765 8.28811 1.28711 -118.85312 -63.15779 -96.34643 -26.56386 41.11266 -89.96952 5.70639 8.82465 -1.08103 15.32291 9.49292 2.70159 49.20875 -21.32679 74.09721 12.33451 34.12111 94.01843 -6.28855 9.46739 1.53204 8.57647 -34.59005 0.78855 0.73702 63.50455 3.89004 -4.72618 -0.03484 0.00524 1.07933 -31.54252 -2.15779 -11.44674 -19.44906 -6.21033 -23.28008 68.75873 27.92756 -30.00194 -0.00240 -0.00078 34.79789 -46.54743 3.20181 
9.09782 77.53014 12.18342 -0.26564 5.52542 135.00104 3.00205 18.51433 4.22114 0.00074 0.00554 -0.00104 -8.73949 -1.24099 49.09664 -1.08304 7.99453 1.22054 -118.09343 -63.21283 -94.72425 -26.57066 41.18764 -90.36393 5.70966 8.86921 -1.20345 15.17307 9.19605 2.77688 48.81342 -20.80368 74.61400 12.12041 33.64976 93.76607 -6.34756 9.45951 1.71853 8.23735 -36.56579 1.00703 2.44728 67.26319 2.48863 -4.36991 -0.03851 0.00496 0.78729 -32.48318 -2.07590 -11.94475 -20.35855 -5.94155 -29.44223 71.62881 34.19304 -30.00099 -0.00138 -0.00060 35.40707 -48.83763 3.30359 
8.72555 76.01022 11.22591 -0.13380 5.77766 134.95799 2.73869 19.50448 4.25298 0.00033 0.00533 -0.00038 -8.43730 -2.29977 49.21029 -0.94507 7.69260 1.20678 -117.20941 -63.16961 -92.99705 -26.56453 41.23701 -90.77760 5.72251 8.93973 -1.32496 14.93017 8.90023 2.92505 48.44242 -20.04405 75.40093 11.86182 32.99658 93.37780 -6.41273 9.44161 1.87909 7.85402 -38.43546 1.18821 4.60009 69.36199 0.68936 -0.77382 -0.14231 0.00114 -2.78662 -31.80389 -2.03671 -12.57808 -21.11241 -5.70384 -36.71786 73.97025 41.72556 -30.00084 -0.00072 -0.00018 35.84768 -50.96869 3.30754 
8.29766 74.60600 10.23556 -0.04890 6.04105 134.91589 2.42499 20.44902 4.29414 -0.00013 0.00505 0.00055 -8.12641 -3.37150 49.36905 -0.78242 7.36124 1.24942 -116.15245 -63.02832 -91.12815 -26.53103 41.24907 -91.21699 5.72319 9.03146 -1.41720 14.59666 8.58441 3.16050 48.07756 -19.07038 76.40413 11.55900 32.17411 92.86546 -6.46039 9.41250 1.96833 7.40831 -40.19436 1.30891 6.97549 70.73923 -1.58498 -3.96693 -0.13910 0.00138 0.47086 -30.69484 -1.80839 -13.37332 -21.68894 -5.51769 -44.77277 75.68010 50.18268 -30.00067 -0.00020 0.00025 36.06829 -52.88545 3.15800 
